<?xml version="1.0" standalone="no"?><!DOCTYPE svg PUBLIC "-//W3C//DTD SVG 1.1//EN" "http://www.w3.org/Graphics/SVG/1.1/DTD/svg11.dtd"><svg t="1678855851124" class="icon" viewBox="0 0 1024 1024" version="1.1" xmlns="http://www.w3.org/2000/svg" p-id="11242" xmlns:xlink="http://www.w3.org/1999/xlink" width="200" height="200"><path d="M512 512m-409.6 0a409.6 409.6 0 1 0 819.2 0 409.6 409.6 0 1 0-819.2 0Z" fill="#195CA1" p-id="11243"></path><path d="M691.2 506.88h-171.008v52.48h92.928v77.9008a78.0544 78.0544 0 0 1-10.368 8.064 74.9056 74.9056 0 0 1-16.256 7.68 138.0864 138.0864 0 0 1-24.32 5.888 220.3392 220.3392 0 0 1-34.5344 2.3296 125.2352 125.2352 0 0 1-48.7936-9.0112 98.0736 98.0736 0 0 1-36.5568-26.24 118.2976 118.2976 0 0 1-23.04-42.5216 191.2832 191.2832 0 0 1-8.064-58.0864v-26.8032a226.4576 226.4576 0 0 1 6.656-57.5488 117.4016 117.4016 0 0 1 20.1472-42.6496 86.6048 86.6048 0 0 1 33.7664-26.368 117.0688 117.0688 0 0 1 47.872-9.0112 126.6432 126.6432 0 0 1 39.5008 5.4784 82.8928 82.8928 0 0 1 27.8784 15.0272 70.4768 70.4768 0 0 1 17.92 22.6816 106.5728 106.5728 0 0 1 9.2928 28.6976h76.8a160.9216 160.9216 0 0 0-16.1024-51.2 125.0816 125.0816 0 0 0-33.152-40.32 153.6 153.6 0 0 0-51.7376-26.368 245.4528 245.4528 0 0 0-71.8848-9.4208 222.0288 222.0288 0 0 0-78.08 12.8 155.8016 155.8016 0 0 0-58.24 37.4528 164.4032 164.4032 0 0 0-36.5568 60.288 240.64 240.64 0 0 0-12.8 81.0496v26.24a218.8288 218.8288 0 0 0 14.1056 81.2032 166.5792 166.5792 0 0 0 39.5008 59.8784 170.8288 170.8288 0 0 0 60.8768 37.1712 227.328 227.328 0 0 0 77.9264 12.8 324.3776 324.3776 0 0 0 65.8432-5.888 253.5936 253.5936 0 0 0 48.0256-14.4896A143.6416 143.6416 0 0 0 691.2 659.3024V506.88z" fill="#FFFFFF" p-id="11244"></path></svg>